<!-- Generated by IcoMoon.io -->
<svg version="1.1" xmlns="http://www.w3.org/2000/svg" width="32" height="32" viewBox="0 0 32 32">
<title>icon_hard_rock</title>
<path fill="#fff" d="M6.261 21.063c0.098-0.19 0.199-0.379 0.29-0.571 0.144-0.306 0.281-0.615 0.423-0.914 0.341-0.741 0.674-1.477 1.026-2.206 0.067-0.222 0.179-0.414 0.325-0.572l-0.001 0.001c0.304-0.251 0.601-0.507 0.901-0.763 0.229-0.187 0.437-0.379 0.656-0.569 0.311-0.267 0.626-0.533 0.937-0.802 0.229-0.201 0.457-0.409 0.686-0.608l0.901-0.763 0.624-0.544c0.311-0.267 0.624-0.533 0.935-0.802 0.229-0.192 0.443-0.386 0.665-0.578l0.928-0.791c0.229-0.19 0.434-0.384 0.654-0.571l1.131-0.969 0.869-0.759c0.302-0.258 0.608-0.514 0.914-0.773 0.080-0.066 0.151-0.142 0.229-0.213h0.576c0.229 0.135 0.439 0.274 0.663 0.405q0.987 0.578 1.979 1.143c0.149 0.101 0.321 0.201 0.5 0.29l0.026 0.012c0.243 0.127 0.44 0.312 0.577 0.538l0.004 0.006 1.582 2.121c0.139 0.187 0.281 0.375 0.418 0.565 0.043 0.056 0.069 0.126 0.069 0.203 0 0.101-0.045 0.192-0.117 0.253l-0 0q-0.615 0.592-1.234 1.179c-0.293 0.279-0.587 0.553-0.882 0.83l-1.392 1.307-0.885 0.837-1.401 1.319-0.914 0.85-1.371 1.28-0.914 0.859-0.914 0.869q-0.446 0.423-0.896 0.839t-0.942 0.889l-0.768 0.715c-0.059 0.064-0.144 0.105-0.239 0.105-0.074 0-0.142-0.025-0.197-0.066l0.001 0.001c-0.578-0.293-1.157-0.59-1.737-0.882l-4.315-2.187c-0.153-0.059-0.28-0.159-0.369-0.288l-0.002-0.003zM23.127 10.057c-0.158 0.135-0.297 0.249-0.43 0.37l-1.189 1.077-1.143 1.040-1.166 1.042-1.143 1.042q-0.576 0.519-1.143 1.038l-2.025 1.833c-0.457 0.407-0.889 0.818-1.335 1.223-0.123 0.114-0.247 0.229-0.379 0.327-0.119 0.084-0.197 0.221-0.197 0.376 0 0.040 0.005 0.078 0.014 0.114l-0.001-0.003c0.011 0.055 0.020 0.12 0.023 0.187l0 0.003 0.055 1.127c0.018 0.437 0.039 0.871 0.055 1.307 0.011 0.341 0.016 0.686 0.030 1.022 0 0.149 0.025 0.297 0.041 0.457 0.045-0.027 0.084-0.055 0.12-0.086l-0.002 0.001c0.155-0.142 0.306-0.286 0.457-0.43l0.914-0.848 0.914-0.85 0.873-0.855 1.838-1.726 0.914-0.85 0.942-0.889 0.887-0.827 1.803-1.703c0.405-0.386 0.807-0.775 1.214-1.159 0.306-0.288 0.617-0.574 0.914-0.857zM9.054 17.024l1.774 0.857c0.551 0.267 1.102 0.535 1.655 0.795 0.017 0.007 0.037 0.011 0.058 0.011 0.031 0 0.060-0.009 0.085-0.025l-0.001 0c0.251-0.213 0.498-0.432 0.743-0.654l2.286-2.080 1.159-1.049 1.12-1.010 1.447-1.298c0.382-0.347 0.766-0.686 1.143-1.040l1.031-0.949c0.114-0.103 0.229-0.199 0.35-0.302l0.727-0.654-0.67-0.391-1.271-0.736-0.933-0.544c-0.026-0.020-0.059-0.032-0.094-0.032-0.048 0-0.092 0.022-0.12 0.057l-0 0c-0.288 0.263-0.583 0.517-0.878 0.773-0.377 0.313-0.741 0.617-1.106 0.939-0.293 0.251-0.578 0.507-0.871 0.757s-0.599 0.507-0.896 0.763c-0.229 0.201-0.457 0.407-0.686 0.608-0.311 0.27-0.624 0.535-0.935 0.802l-0.656 0.571c-0.361 0.306-0.725 0.61-1.083 0.914s-0.713 0.626-1.074 0.937-0.752 0.635-1.12 0.953-0.777 0.686-1.182 1.024zM7.001 21.029l5.545 2.816c0-0.071 0-0.112 0-0.153-0.027-0.416-0.057-0.83-0.082-1.246-0.021-0.35-0.037-0.686-0.055-1.047-0.027-0.59-0.069-1.177-0.075-1.767 0.003-0.018 0.004-0.038 0.004-0.058 0-0.186-0.121-0.344-0.289-0.398l-0.003-0.001c-0.885-0.402-1.753-0.841-2.629-1.266l-0.793-0.386z"></path>
</svg>
