<!-- Generated by IcoMoon.io -->
<svg version="1.1" xmlns="http://www.w3.org/2000/svg" width="32" height="32" viewBox="0 0 32 32">
<title>icon_soft_rock_coal</title>
<path fill="#fff" d="M25.6 20.72h-0.846c-0.085 0.421-0.171 0.841-0.254 1.262-0.041 0.199-0.073 0.398-0.112 0.594-0.032 0.113-0.134 0.195-0.256 0.195-0.007 0-0.015-0-0.022-0.001l0.001 0c-0.576 0-1.143 0-1.728 0-0.010-0.001-0.021-0.002-0.032-0.002-0.11 0-0.202 0.078-0.224 0.181l-0 0.002c-0.137 0.402-0.386 0.736-0.71 0.974l-0.006 0.004c-0.011 0-0.016 0.021-0.043 0.059h4.489c0.010-0.001 0.022-0.002 0.034-0.002 0.121 0 0.225 0.075 0.267 0.181l0.001 0.002c0.016 0.034 0.026 0.073 0.026 0.115 0 0.084-0.038 0.158-0.098 0.207l-0 0c-0.045 0.028-0.098 0.050-0.153 0.065l-0.004 0.001c-0.012 0.002-0.027 0.003-0.041 0.003s-0.029-0.001-0.043-0.003l0.002 0h-19.362c-0.137 0-0.263-0.016-0.327-0.162-0.018-0.036-0.028-0.079-0.028-0.123 0-0.155 0.125-0.281 0.28-0.283h0c0.311 0 0.622 0 0.933 0h3.351c-0.402-0.297-0.7-0.715-0.842-1.2l-0.004-0.016h-1.6c-0.192 0-0.279-0.053-0.32-0.242-0.123-0.597-0.229-1.198-0.357-1.806h-0.846v0.13c0 0.251 0 0.503 0 0.754-0.001 0.158-0.13 0.286-0.288 0.286-0.003 0-0.006-0-0.010-0h0c-0 0-0 0-0 0-0.149 0-0.27-0.121-0.27-0.27 0-0.002 0-0.005 0-0.007v0q0-1.2 0-2.4c0-0.158 0.105-0.229 0.274-0.251 0.011-0.002 0.024-0.003 0.037-0.003 0.14 0 0.254 0.114 0.254 0.254 0 0.005-0 0.010-0 0.015l0-0.001c0.011 0.251 0 0.503 0 0.754v0.155h0.729c-0.034-0.178-0.066-0.35-0.101-0.519l-0.315-1.566-0.377-1.899-0.336-1.703c-0.059-0.299-0.117-0.599-0.183-0.896-0.011-0.031-0.018-0.066-0.018-0.103 0-0.167 0.135-0.302 0.302-0.302 0.013 0 0.025 0.001 0.038 0.002l-0.001-0c0.35 0 0.704 0 1.054 0 0.006 0 0.013 0.001 0.020 0.001 0.099 0 0.187-0.051 0.238-0.128l0.001-0.001c0.357-0.457 0.702-0.903 1.072-1.337 0.329-0.386 0.674-0.766 1.038-1.118 0.4-0.389 0.841-0.734 1.241-1.12 0.458-0.406 0.97-0.772 1.516-1.083l0.045-0.023c0.401-0.245 0.869-0.426 1.37-0.515l0.024-0.004c0.597-0.112 1.191-0.229 1.787-0.327 0.43-0.075 0.857-0.176 1.289-0.215 0.054-0.006 0.116-0.009 0.179-0.009 0.474 0 0.904 0.188 1.22 0.494l-0-0c0.313 0.29 0.617 0.59 0.937 0.875 0.155 0.132 0.355 0.216 0.573 0.228l0.003 0c0.302 0.027 0.601 0.069 0.901 0.105 0.229 0.027 0.441 0.039 0.656 0.085 0.43 0.092 0.789 0.34 1.025 0.68l0.004 0.006c0.368 0.533 0.725 1.070 1.070 1.616 0.279 0.46 0.508 0.993 0.658 1.557l0.010 0.043c0.012 0.103 0.099 0.182 0.204 0.182 0.013 0 0.027-0.001 0.039-0.004l-0.001 0c0.416-0.014 0.832 0 1.248 0 0.007-0.001 0.016-0.001 0.024-0.001 0.168 0 0.304 0.136 0.304 0.304 0 0.034-0.006 0.066-0.016 0.097l0.001-0.002c-0.183 0.896-0.361 1.792-0.542 2.69-0.158 0.791-0.313 1.584-0.473 2.375-0.094 0.475-0.194 0.949-0.293 1.422-0.001 0.015-0.002 0.033-0.002 0.050s0.001 0.035 0.002 0.053l-0-0.002h0.715c0-0.297 0-0.592 0-0.889-0.001-0.009-0.002-0.018-0.002-0.028 0-0.11 0.069-0.203 0.167-0.238l0.002-0.001c0.035-0.017 0.076-0.026 0.119-0.026 0.082 0 0.156 0.035 0.207 0.090l0 0c0.041 0.049 0.067 0.111 0.071 0.18l0 0.001c0 0.791 0 1.582 0 2.373 0 0.005 0.001 0.012 0.001 0.018 0 0.153-0.124 0.277-0.277 0.277-0.002 0-0.004-0-0.005-0h0c-0 0-0 0-0 0-0.158 0-0.286-0.128-0.286-0.286 0-0.004 0-0.008 0-0.012l-0 0.001c0.002-0.281 0.002-0.56 0.002-0.869zM17.909 22.197c0.011-1.147 0.905-2.082 2.035-2.157l0.007-0c0.046-0.003 0.099-0.005 0.153-0.005 1.189 0 2.153 0.964 2.153 2.153 0 0.006-0 0.012-0 0.018v-0.001h1.415c0.197 0 0.197 0 0.229-0.192 0-0.053 0.021-0.105 0.032-0.158l0.35-1.712c0.123-0.619 0.245-1.241 0.368-1.861q0.199-0.994 0.4-1.989 0.174-0.864 0.347-1.728c0.055-0.279 0.107-0.558 0.16-0.839h-18.793c0.119 0.606 0.229 1.205 0.357 1.803q0.24 1.225 0.485 2.443 0.192 0.985 0.389 1.966c0.144 0.718 0.293 1.433 0.427 2.151 0.021 0.101 0.059 0.114 0.142 0.114 0.366 0 0.731 0 1.097 0 0.037 0 0.071 0 0.105 0 0.013-1.152 0.915-2.089 2.051-2.157l0.006-0c0.039-0.003 0.084-0.004 0.13-0.004 1.19 0 2.155 0.965 2.155 2.155 0 0.003 0 0.006-0 0.009v-0zM8.416 13.147h15.415c0-0.025 0-0.048 0-0.069-0.161-0.574-0.388-1.076-0.679-1.534l0.014 0.023c-0.311-0.489-0.635-0.969-0.958-1.449-0.152-0.234-0.383-0.406-0.655-0.478l-0.008-0.002c-0.178-0.040-0.393-0.073-0.612-0.090l-0.017-0.001c-0.304-0.039-0.606-0.078-0.914-0.105-0.301-0.013-0.574-0.124-0.791-0.301l0.002 0.002c-0.357-0.309-0.686-0.635-1.045-0.953-0.218-0.214-0.518-0.347-0.849-0.347-0.051 0-0.1 0.003-0.149 0.009l0.006-0.001c-0.501 0.066-0.999 0.176-1.497 0.265s-0.965 0.162-1.447 0.254c-0.59 0.116-1.112 0.343-1.568 0.66l0.013-0.009c-0.281 0.192-0.583 0.361-0.848 0.571-0.341 0.27-0.661 0.565-0.976 0.862-0.411 0.384-0.823 0.77-1.207 1.182-0.336 0.361-0.638 0.757-0.953 1.143-0.091 0.117-0.176 0.233-0.279 0.368zM21.673 22.197c-0.001-0.883-0.717-1.598-1.6-1.598s-1.6 0.716-1.6 1.6c0 0.855 0.67 1.553 1.514 1.598l0.004 0c0.027 0.002 0.059 0.003 0.091 0.003 0.884 0 1.6-0.716 1.6-1.6 0-0.001 0-0.002 0-0.003v0zM11.95 23.797c0.884-0 1.6-0.716 1.6-1.6s-0.716-1.6-1.6-1.6-1.6 0.716-1.6 1.6c0 0.010 0 0.019 0 0.029l-0-0.001c0.017 0.871 0.726 1.57 1.6 1.57 0.003 0 0.007 0 0.010-0h-0.001zM18.77 23.982c-0.032-0.054-0.069-0.101-0.112-0.141l-0-0c-0.289-0.239-0.506-0.555-0.62-0.916l-0.004-0.014c-0.043-0.123-0.091-0.137-0.197-0.137h-3.801l0.027 0.027c-0.115 0.251-0.228 0.46-0.353 0.66l0.014-0.025c-0.153 0.2-0.306 0.378-0.47 0.545l0.001-0.001z"></path>
</svg>
