<!-- Generated by IcoMoon.io -->
<svg version="1.1" xmlns="http://www.w3.org/2000/svg" width="32" height="32" viewBox="0 0 32 32">
<title>icon_structural_repair</title>
<path fill="#fff" d="M29.742 19.886c-0.098 0.046-0.212 0.081-0.331 0.1l-0.007 0.001c-1.6 0-3.2 0-4.784 0h-0.203v0.162c0 1.349 0 2.697 0 4.046 0 0.295-0.144 0.366-0.357 0.368-0.859 0-1.719 0-2.578 0-0.229 0-0.325-0.126-0.325-0.361v-4.19h-9.989v0.139c0 1.33 0 2.661 0 3.991 0 0.347-0.101 0.437-0.441 0.439h-2.437c-0.018 0.002-0.039 0.003-0.061 0.003s-0.042-0.001-0.063-0.004l0.002 0c-0.187-0.048-0.256-0.151-0.256-0.373v-4.208h-5.23c-0.009 0.001-0.020 0.002-0.031 0.002-0.128 0-0.234-0.093-0.255-0.215l-0-0.002c-0.010-0.025-0.015-0.054-0.015-0.085 0-0.094 0.053-0.175 0.13-0.216l0.001-0.001c0.052-0.030 0.115-0.048 0.182-0.048 0.004 0 0.007 0 0.011 0h-0.001c0.745 0 1.49 0 2.235 0h0.174v-3.842c-0.128 0.050-0.254 0.11-0.384 0.153-0.374 0.143-0.807 0.241-1.257 0.276l-0.016 0.001c-0.187 0-0.373 0.014-0.558 0.027-0.261 0.021-0.297-0.114-0.32-0.277s0.133-0.281 0.325-0.29l0.503-0.027c0.445-0.033 0.858-0.136 1.239-0.298l-0.026 0.010c0.509-0.207 0.946-0.484 1.325-0.824l-0.004 0.004c0.552-0.496 1.011-1.082 1.355-1.738l0.016-0.034c0.213-0.394 0.411-0.857 0.568-1.338l0.017-0.061c0.019-0.056 0.030-0.12 0.030-0.186 0-0.005-0-0.010-0-0.015v0.001q0-1.534 0-3.070c0-0.27 0.080-0.35 0.345-0.35h2.617c0.010-0.001 0.021-0.002 0.032-0.002 0.136 0 0.247 0.111 0.247 0.247 0 0.011-0.001 0.022-0.002 0.033l0-0.001c0 1.010 0 2.021 0 3.031 0.021 0.31 0.095 0.598 0.214 0.861l-0.006-0.016c0.162 0.452 0.33 0.829 0.522 1.191l-0.024-0.049c0.494 0.999 1.291 1.787 2.268 2.257l0.029 0.013c0.316 0.149 0.683 0.256 1.069 0.302l0.017 0.002c0.269 0.042 0.585 0.070 0.906 0.078l0.008 0c0.037 0.001 0.081 0.002 0.125 0.002 0.797 0 1.549-0.193 2.211-0.535l-0.027 0.013c0.488-0.265 0.902-0.598 1.248-0.994l0.004-0.005c0.533-0.626 0.961-1.362 1.242-2.167l0.015-0.048c0.106-0.278 0.167-0.599 0.167-0.934 0-0.015-0-0.031-0-0.046l0 0.002c0-0.955 0-1.911 0-2.866-0-0.002-0-0.005-0-0.008 0-0.079 0.013-0.155 0.038-0.226l-0.001 0.005c0.027-0.083 0.104-0.142 0.194-0.142 0.005 0 0.010 0 0.015 0.001l-0.001-0h2.757c0.003-0 0.005-0 0.008-0 0.135 0 0.245 0.109 0.245 0.245 0 0.010-0.001 0.019-0.002 0.029l0-0.001c0 0.818-0.016 1.637 0 2.455 0.028 0.337 0.089 0.648 0.182 0.945l-0.008-0.031c0.169 0.624 0.392 1.168 0.671 1.676l-0.020-0.039c0.321 0.624 0.735 1.154 1.229 1.595l0.005 0.005c0.59 0.527 1.34 0.885 2.169 0.992l0.020 0.002c0.203 0.030 0.44 0.049 0.681 0.053l0.004 0c0.011-0.001 0.024-0.002 0.037-0.002 0.158 0 0.294 0.093 0.355 0.228l0.001 0.002v0.165c-0.058 0.119-0.178 0.2-0.318 0.2-0.030 0-0.059-0.004-0.087-0.011l0.002 0.001c-0.169-0.016-0.338 0-0.503-0.032-0.311-0.048-0.622-0.101-0.914-0.178-0.229-0.062-0.471-0.162-0.715-0.251v3.829h0.169c0.686 0 1.353 0 2.030 0 0.016-0.002 0.035-0.003 0.054-0.003 0.113 0 0.215 0.042 0.294 0.111l-0-0zM8.485 8.121v15.879h2.101v-15.87zM21.742 8.121v15.879h2.101v-15.872zM26.619 19.429v-1.163q0-1.454 0-2.907c-0.003-0.060-0.029-0.114-0.069-0.153l-0-0c-0.402-0.289-0.751-0.614-1.056-0.976l-0.007-0.009c-0.37-0.449-0.693-0.959-0.951-1.506l-0.019-0.044c-0.027-0.057-0.048-0.114-0.073-0.169h-0.016v6.928zM7.909 12.672c-0.032 0.046-0.048 0.062-0.057 0.080-0.242 0.455-0.496 0.844-0.78 1.209l0.014-0.019c-0.365 0.483-0.795 0.894-1.282 1.227l-0.019 0.012c-0.070 0.040-0.116 0.114-0.116 0.199 0 0.010 0.001 0.021 0.002 0.031l-0-0.001q0 1.927 0 3.854v0.165h2.238zM11.177 12.821v6.608h2.057c0-0.039 0-0.071 0-0.101 0-1.326 0-2.651 0-3.977 0-0.001 0-0.001 0-0.002 0-0.073-0.041-0.136-0.102-0.167l-0.001-0.001c-0.518-0.362-0.953-0.8-1.301-1.304l-0.011-0.017c-0.226-0.343-0.43-0.697-0.642-1.040zM21.15 19.429v-6.505c-0.773 1.321-1.035 1.63-2.002 2.345v4.16zM16.439 19.429h2.137v-3.851c-0.626 0.299-1.361 0.475-2.136 0.48h-0.002zM13.808 15.577v3.851h2.057v-3.374c-0.75-0.021-1.454-0.195-2.090-0.491l0.033 0.014z"></path>
</svg>
