<?xml version="1.0" encoding="UTF-8"?><svg xmlns="http://www.w3.org/2000/svg" xmlns:xlink="http://www.w3.org/1999/xlink" version="1.1" id="Layer_1" x="0px" y="0px" viewBox="0 0 148 32" style="enable-background:new 0 0 148 32;" xml:space="preserve"><style type="text/css">.st0{fill:#B52018;}	.st1{fill:#FBBB00;}	.st2{fill:#373737;}</style><path class="st0" d="M46.6,0c0,0,0.8,0.5,1.8,1.3c1.1,0.9,2.7,2.2,4.1,3.7c1.7,1.8,3.3,4.4,4.2,7.4c1.1,4.1,1.1,10-2.9,19.3L38.3,16 c3.5-2.4,5.2-4.4,5.9-6.2c0.6-1.5,0.6-2.8,0.3-4c-0.3-1-1-1.9-1.6-2.7c-0.6-0.7-1.2-1.3-1.7-1.7L46.6,0L46.6,0z"/><path class="st1" d="M27.5,5.1L0,12.4c0.5,2.4,2.4,4.5,5.4,6.1c3.1,1.7,7.1,2.6,11.5,2.9c4.2,0.3,8.5-0.3,12.4-1.2 c3.5-1,6.5-2.3,9-3.9l0,0L27.5,5.1L27.5,5.1z"/><path class="st2" d="M61.6,7.5h3.2l4.6,6.4l4.7-6.4h3.2v15.8h-3.6v-9.8l-4.4,5.8l-4.3-5.8v9.8h-3.6L61.6,7.5z"/><path class="st2" d="M80.4,7.5h3.7v15.8h-3.7C80.4,23.3,80.4,7.5,80.4,7.5z"/><path class="st2" d="M90.8,23.3h-3.7V7.5h3.2l7.8,9.4V7.5h3.6v15.8h-2.9l-8.1-9.9L90.8,23.3z"/><path class="st2" d="M106.2,9.5c1.5-1.5,3.3-2.3,5.7-2.3c2.3,0,4.2,0.7,5.7,2.3s2.3,3.6,2.3,5.9s-0.8,4.4-2.3,5.9 c-1.5,1.5-3.3,2.3-5.7,2.3c-2.3,0-4.2-0.8-5.7-2.3s-2.3-3.6-2.3-5.9C103.9,13,104.7,11,106.2,9.5z M111.9,20.2c2.4,0,4.2-2,4.2-4.8 c0-2.9-1.7-4.9-4.2-4.9s-4.2,2-4.2,4.9C107.7,18.2,109.4,20.2,111.9,20.2z"/><path class="st2" d="M119.7,7.5h3.8l3.7,9.2l3.8-9.2h3.9l-7.1,15.9h-1.6L119.7,7.5z"/><path class="st2" d="M138,7.5h4.2l5.7,15.8H144l-1-3.1h-6.3l-1.1,3.1h-3.9C131.7,23.3,138,7.5,138,7.5z M142,17.5l-2.1-6l-2.3,6H142 z"/></svg>